<?xml version="1.0" encoding="UTF-8"?>
<svg version="1.1" xmlns="http://www.w3.org/2000/svg" width="512" height="512">
<path d="M0 0 C4.39019764 2.54711597 8.12896245 5.73381206 12 9 C13.98531942 10.51937711 15.98466933 12.02066153 18 13.5 C18.86625 14.1496875 19.7325 14.799375 20.625 15.46875 C23.59880645 17.42375213 23.59880645 17.42375213 27 18 C31.70063349 16.13006349 35.50935398 13.25048357 39.4375 10.125 C40.58979436 9.2343111 41.74213758 8.3436854 42.89453125 7.453125 C44.62925507 6.08280229 46.35022215 4.69262056 48.01171875 3.234375 C52.28743172 -0.36840494 56.09582365 -0.70781519 61.48046875 -0.3984375 C65.24714608 0.1972231 66.6547105 0.94401671 69 4 C71.39757166 9.0658369 72.85007862 14.47126053 74.40625 19.83984375 C74.65898682 20.68925537 74.91172363 21.53866699 75.17211914 22.41381836 C75.67603144 24.11651149 76.1627018 25.82441788 76.63061523 27.53735352 C76.86466064 28.32940186 77.09870605 29.1214502 77.33984375 29.9375 C77.53956787 30.64777344 77.73929199 31.35804687 77.94506836 32.08984375 C79.48707412 34.88194121 81.10226487 35.71147745 84 37 C87.28734301 37.3472884 87.28734301 37.3472884 90.83984375 37.15234375 C92.15017578 37.12462891 93.46050781 37.09691406 94.81054688 37.06835938 C96.87552223 37.00627515 98.94006968 36.93740743 101.00463867 36.86303711 C103.01170499 36.79628642 105.0195752 36.75529511 107.02734375 36.71484375 C108.22093506 36.67480225 109.41452637 36.63476074 110.64428711 36.59350586 C114.73527252 37.08906721 116.81057322 38.44155719 120 41 C122.85041002 45.04574326 123.21393417 47.75679771 122.51879883 52.60107422 C121.2413998 58.50776734 118.84014047 64.13584935 116.70703125 69.77539062 C116.34738281 70.76087891 115.98773438 71.74636719 115.6171875 72.76171875 C115.28315918 73.64819092 114.94913086 74.53466309 114.60498047 75.44799805 C113.89239596 78.45390839 113.9767713 80.08734986 115 83 C117.45658279 85.91601747 120.23185598 87.97565356 123.40625 90.05859375 C124.64568359 90.88520508 124.64568359 90.88520508 125.91015625 91.72851562 C127.63492517 92.866655 129.36148826 94.00208016 131.08984375 95.13476562 C139.44660464 100.72114946 139.44660464 100.72114946 142 105 C142.49609375 107.5 142.49609375 107.5 142.4375 110 C142.43556641 111.2375 142.43556641 111.2375 142.43359375 112.5 C141.52120656 117.76061082 138.95873811 120.20121944 134.7265625 123.19140625 C133.03287753 124.32538127 131.33208234 125.44879538 129.625 126.5625 C120.44178905 131.62945747 120.44178905 131.62945747 114.25830078 139.23730469 C113.93502975 142.69489919 114.7067381 144.86012741 115.90625 148.11328125 C116.32003906 149.27923828 116.73382813 150.44519531 117.16015625 151.64648438 C118.04960823 154.08015984 118.94280737 156.51246924 119.83984375 158.94335938 C123.85754575 170.30181596 123.85754575 170.30181596 122 177 C119.07638581 180.73572924 116.47954203 182.58240827 112 184 C108.84960938 184.14770508 108.84960938 184.14770508 105.34375 184.01953125 C104.07402344 183.99052734 102.80429687 183.96152344 101.49609375 183.93164062 C98.83165645 183.85220237 96.16754264 183.76105126 93.50390625 183.65820312 C92.23417969 183.63306641 90.96445312 183.60792969 89.65625 183.58203125 C87.92084961 183.52366089 87.92084961 183.52366089 86.15039062 183.46411133 C81.94272611 184.17984471 80.59182975 185.66327654 78 189 C76.70142371 191.86844533 76.70142371 191.86844533 75.9375 195 C75.61523438 196.134375 75.29296875 197.26875 74.9609375 198.4375 C74.48527344 200.2009375 74.48527344 200.2009375 74 202 C70.17286085 216.18841832 70.17286085 216.18841832 65 220 C61.24539724 221.87730138 57.98568347 221.94397766 54 221 C47.88593506 217.41068423 42.42743394 212.9437838 36.90234375 208.51953125 C35.96519531 207.79121094 35.02804687 207.06289062 34.0625 206.3125 C33.24910156 205.64863281 32.43570313 204.98476562 31.59765625 204.30078125 C27.81744878 202.40783526 26.0459523 202.77484691 22 204 C18.74704095 206.04305052 15.82662717 208.42265305 12.875 210.875 C-0.09808182 221.41962315 -0.09808182 221.41962315 -5.375 221.5625 C-6.43847656 221.62630859 -6.43847656 221.62630859 -7.5234375 221.69140625 C-11.69313677 220.5273104 -14.35217026 218.41311426 -17 215 C-18.82774496 210.7617666 -19.97639732 206.40127563 -21.125 201.9375 C-21.73749407 199.60925371 -22.36463015 197.28479984 -23.0078125 194.96484375 C-23.27223145 193.9399585 -23.53665039 192.91507324 -23.80908203 191.85913086 C-25.31220396 188.25046728 -26.90537384 186.38791088 -30 184 C-33.14722102 183.37983541 -33.14722102 183.37983541 -36.55078125 183.65234375 C-37.80697266 183.68650391 -39.06316406 183.72066406 -40.35742188 183.75585938 C-41.66259766 183.81580078 -42.96777344 183.87574219 -44.3125 183.9375 C-60.26537617 184.62902976 -60.26537617 184.62902976 -67 180 C-70.26205525 174.85979173 -70.26458424 170.76655214 -69 165 C-67.4462752 160.23957592 -65.56724263 155.60444898 -63.70703125 150.95703125 C-60.8720548 144.08877223 -60.8720548 144.08877223 -62 137 C-64.29407077 134.60484424 -64.29407077 134.60484424 -67.3125 132.625 C-67.84286865 132.24633789 -68.3732373 131.86767578 -68.91967773 131.47753906 C-71.68702982 129.52047158 -74.51177846 127.65806384 -77.359375 125.8203125 C-78.41640625 125.13710937 -79.4734375 124.45390625 -80.5625 123.75 C-81.53316406 123.14671875 -82.50382812 122.5434375 -83.50390625 121.921875 C-86.83073886 119.36037008 -88.63193675 116.90663396 -89.43359375 112.75390625 C-89.43488281 112.03074219 -89.43617188 111.30757813 -89.4375 110.5625 C-89.45683594 109.84191406 -89.47617187 109.12132813 -89.49609375 108.37890625 C-88.10093404 101.68873093 -83.4811749 98.62988135 -78.08984375 95.046875 C-77.23519531 94.49515625 -76.38054687 93.9434375 -75.5 93.375 C-73.79945253 92.26182112 -72.10144425 91.14475163 -70.40625 90.0234375 C-69.65666016 89.53794434 -68.90707031 89.05245117 -68.13476562 88.55224609 C-64.96840841 86.24990172 -62.50606547 84.37654346 -61.12866211 80.62988281 C-60.96541798 77.29313571 -61.7636155 75.04567491 -62.94140625 71.921875 C-63.35970703 70.76042969 -63.77800781 69.59898438 -64.20898438 68.40234375 C-65.10671414 65.97989835 -66.01288761 63.56056433 -66.92773438 61.14453125 C-69.15862036 54.90356738 -70.70854229 50.21976081 -68.83764648 43.72949219 C-67.14863097 40.24217482 -64.34047797 38.67023898 -61 37 C-58.35971563 36.87677055 -55.74684217 36.81161732 -53.10546875 36.796875 C-52.3210994 36.79117493 -51.53673004 36.78547485 -50.72859192 36.77960205 C-49.06671499 36.7701486 -47.40481928 36.7636167 -45.74291992 36.75976562 C-43.20783462 36.75007771 -40.67356621 36.71906596 -38.13867188 36.6875 C-36.52344231 36.68096803 -34.90820695 36.67571832 -33.29296875 36.671875 C-32.15990547 36.6533548 -32.15990547 36.6533548 -31.00395203 36.63446045 C-26.4771841 36.65348974 -23.64506862 37.27866011 -20 40 C-18.96237094 37.01162829 -17.97510646 34.00929985 -17 31 C-16.74089844 30.26136719 -16.48179687 29.52273437 -16.21484375 28.76171875 C-15.43063258 26.45269845 -15.43063258 26.45269845 -15 23 C-16.85410577 20.89586384 -16.85410577 20.89586384 -19 19 C-19.73983263 13.50410047 -18.57055543 8.83684104 -16 4 C-11.85844847 -1.17693941 -6.13478723 -1.43276966 0 0 Z " fill="#E9C32D" transform="translate(346,0)"/>
<path d="M0 0 C0.75023437 0.04382813 1.50046875 0.08765625 2.2734375 0.1328125 C5.73229728 1.22447921 7.29161884 3.13395574 9.625 5.875 C10.47470093 8.82247925 10.47470093 8.82247925 10.80224609 12.22607422 C10.86983313 12.86790083 10.93742016 13.50972744 11.00705528 14.17100334 C11.2354374 16.40404247 11.42989646 18.63881987 11.625 20.875 C11.79302627 22.61100691 11.96263814 24.34686088 12.13360596 26.08258057 C12.71971957 32.13801691 13.25522444 38.19758103 13.7890625 44.2578125 C13.98776225 46.4888607 14.18669005 48.7198886 14.38583374 50.95089722 C14.79966094 55.59501313 15.21124275 60.2393206 15.62109375 64.88378906 C16.14633801 70.83461311 16.6765191 76.78498487 17.20826149 82.7352314 C17.61829058 87.32810658 18.02611955 91.92117499 18.43323898 96.51430893 C18.62801562 98.70960603 18.82338694 100.90485046 19.01936722 103.10004044 C19.29194796 106.15781402 19.56165767 109.21582738 19.83056641 112.27392578 C19.91158096 113.17680832 19.99259552 114.07969086 20.07606506 115.00993347 C20.42216325 118.97770452 20.72921485 122.88722859 20.625 126.875 C24.25417387 124.68335857 27.88183188 122.48923288 31.50820923 120.29296875 C32.79204906 119.51574801 34.07620744 118.73905323 35.36068726 117.96289062 C41.77796423 114.08407901 48.18224071 110.19826982 54.46875 106.109375 C55.31977295 105.55733398 56.1707959 105.00529297 57.04760742 104.43652344 C58.59651503 103.42448819 60.13884274 102.40228106 61.6730957 101.36816406 C65.99274685 98.54909745 69.33292582 97.11914806 74.625 96.875 C77.27316011 97.66229084 78.25384529 98.39780109 79.9375 100.5625 C81.08581935 104.42502871 80.41587746 108.29324508 78.625 111.875 C79.39166992 111.97522461 80.15833984 112.07544922 80.94824219 112.17871094 C84.42641524 112.64338053 87.9004682 113.1338742 91.375 113.625 C92.5815625 113.78226562 93.788125 113.93953125 95.03125 114.1015625 C96.19140625 114.26914062 97.3515625 114.43671875 98.546875 114.609375 C99.61518555 114.75600586 100.68349609 114.90263672 101.78417969 115.05371094 C105.10051977 116.01247409 106.47286663 117.21538082 108.625 119.875 C109.19140625 121.875 109.19140625 121.875 109.1875 123.875 C109.20941406 124.535 109.23132813 125.195 109.25390625 125.875 C108.26704822 129.01333114 106.31510474 130.08881891 103.625 131.875 C100.89941406 132.15893555 100.89941406 132.15893555 97.890625 131.82421875 C96.74529297 131.69837402 95.59996094 131.5725293 94.41992188 131.44287109 C90.35642851 130.83481103 86.33105741 130.10721039 82.296875 129.33203125 C63.49842055 124.89819688 63.49842055 124.89819688 45.8125 130 C43.92837984 131.39454373 42.14336034 132.838216 40.38378906 134.38671875 C37.37707836 136.930987 34.02213349 138.91846558 30.6875 141 C29.5533594 141.75256495 28.41924233 142.50516538 27.28515625 143.2578125 C24.625 144.875 24.625 144.875 22.625 144.875 C22.6971875 145.4834375 22.769375 146.091875 22.84375 146.71875 C23.463837 152.5751272 23.80837957 158.42676021 23.9375 164.3125 C23.96714844 164.99828125 23.99679688 165.6840625 24.02734375 166.390625 C24.06820675 169.84354826 23.85764743 171.57135913 21.73046875 174.34765625 C19.625 175.875 19.625 175.875 17.625 175.875 C17.79 177.15375 17.955 178.4325 18.125 179.75 C18.69541736 184.8034158 18.72043708 189.79562649 18.625 194.875 C19.7696875 195.0296875 19.7696875 195.0296875 20.9375 195.1875 C23.84367978 195.93094134 24.82413049 196.53386963 26.625 198.875 C28.09609628 203.28828883 28.27512803 207.75643395 28.6875 212.375 C28.82381836 213.79039062 28.82381836 213.79039062 28.96289062 215.234375 C29.55918356 221.7980807 29.73347663 228.28604922 29.625 234.875 C39.25940187 229.03531664 48.39495828 222.49302119 57.28759766 215.57788086 C59.625 213.875 59.625 213.875 62.13037109 212.54907227 C65.48910525 210.58784394 67.99700243 208.85507978 69.21697998 205.00848389 C70.37920793 199.33994682 70.66696779 193.57738398 71 187.8125 C71.18190442 185.20962631 71.37574171 182.60827806 71.5819397 180.00721741 C71.7063872 178.39563716 71.81532023 176.78275705 71.90609741 175.16893005 C72.23147526 170.44430831 73.06130244 166.98814572 75.625 162.875 C78.71673752 161.32913124 81.21929552 161.58140479 84.625 161.875 C87.29967914 163.77542991 88.38920256 165.0043704 89.24780273 168.17456055 C89.64866002 171.04438739 89.55888887 173.51228775 89.28515625 176.39453125 C89.19169922 177.41611328 89.09824219 178.43769531 89.00195312 179.49023438 C88.89818359 180.54533203 88.79441406 181.60042969 88.6875 182.6875 C88.58759766 183.76193359 88.48769531 184.83636719 88.38476562 185.94335938 C88.13794039 188.58791544 87.88447479 191.23166012 87.625 193.875 C88.47707031 193.06160156 89.32914063 192.24820313 90.20703125 191.41015625 C95.90791505 187.34793575 102.59634379 188.18990613 109.3125 188.3125 C110.63056641 188.30154297 111.94863281 188.29058594 113.30664062 188.27929688 C122.94277999 188.35300523 122.94277999 188.35300523 125.99926758 190.69165039 C128.37114287 193.87706573 128.17739008 196.00826941 127.625 199.875 C126.2421875 202.0859375 126.2421875 202.0859375 123.625 203.875 C120.16653327 204.27279387 116.72517166 204.08745504 113.25 204 C101.7462827 204.07909571 96.00327625 207.43253647 87.625 214.875 C85.32500398 216.59490596 82.98292645 218.2341901 80.625 219.875 C85.45736551 220.88823793 90.26766591 221.83895864 95.15625 222.53515625 C96.35145264 222.71244263 96.35145264 222.71244263 97.57080078 222.89331055 C99.17141458 223.12833535 100.77402599 223.35018957 102.37841797 223.55786133 C105.99649439 224.10068953 108.16274056 224.52848515 111.13671875 226.7578125 C113.34072454 229.89316982 113.09188841 232.13989273 112.625 235.875 C111.5625 238.25 111.5625 238.25 109.625 239.875 C104.3306031 241.0073421 99.6376557 240.71316548 94.34765625 239.87890625 C93.57747665 239.76651108 92.80729706 239.65411591 92.01377869 239.53831482 C89.57020006 239.18067078 87.12883364 238.81013605 84.6875 238.4375 C82.24957164 238.06988931 79.81130683 237.70529518 77.37193298 237.34739685 C75.8605943 237.12524014 74.35006454 236.89747679 72.84059143 236.66297913 C64.36846795 235.24825836 64.36846795 235.24825836 56.19140625 236.97314453 C55.19947266 237.73280518 55.19947266 237.73280518 54.1875 238.5078125 C53.43726563 239.06726563 52.68703125 239.62671875 51.9140625 240.203125 C51.15867188 240.79609375 50.40328125 241.3890625 49.625 242 C48.86960938 242.56976563 48.11421875 243.13953125 47.3359375 243.7265625 C45.90368545 244.80936474 44.47704433 245.89966833 43.05859375 247.00048828 C40.625 248.875 40.625 248.875 38.5559082 249.95584106 C36.0753969 251.40225099 34.41116 252.6150637 32.625 254.875 C31.80642624 259.40250051 32.3887924 263.68479673 32.9375 268.2265625 C33.0597998 269.51815277 33.18209961 270.80974304 33.30810547 272.14047241 C33.63273002 275.5662407 34.0074846 278.98466896 34.39349365 282.4039917 C34.77752995 285.88097314 35.11588587 289.36234365 35.45703125 292.84375 C36.06040014 298.96495086 36.70509436 305.08089584 37.38134766 311.19448853 C37.625 313.875 37.625 313.875 37.625 317.875 C38.23499635 317.87348112 38.8449927 317.87196224 39.47347379 317.87039733 C75.6060969 317.78093519 111.73870366 317.71227918 147.8714148 317.67073868 C152.20740823 317.6657357 156.54340143 317.66055843 160.87939453 317.65527344 C161.74263296 317.6542242 162.60587139 317.65317495 163.49526855 317.65209392 C177.48293112 317.63467642 191.4705281 317.60313135 205.45815173 317.56638882 C219.80480439 317.52901677 234.15142264 317.50677207 248.49812198 317.49864602 C257.35480097 317.49315047 266.2112946 317.47577735 275.06791654 317.44333413 C281.13665313 317.42223233 287.20529352 317.41579008 293.27406415 317.42099449 C296.77839805 317.42356307 300.28240746 317.4195547 303.78668404 317.3981781 C307.58205213 317.37519426 311.37699404 317.38302212 315.17242432 317.39398193 C316.28525701 317.38233057 317.3980897 317.3706792 318.54464459 317.35867476 C320.06664287 317.37062106 320.06664287 317.37062106 321.61938858 317.38280869 C322.4957831 317.3812898 323.37217762 317.37977092 324.27512956 317.37820601 C327.44593096 318.04855577 328.64656078 319.35591065 330.625 321.875 C331.17253369 325.70773586 331.34818867 327.86164204 329.06402826 331.06228971 C325.79630078 333.49089758 323.01637054 333.42987452 319.10054779 333.37836456 C318.33567427 333.38417833 317.57080074 333.38999209 316.78274924 333.39598203 C314.20458156 333.41064869 311.62735601 333.39666623 309.04919434 333.38293457 C307.18830295 333.38754086 305.32741519 333.39389194 303.46653509 333.40184355 C298.34108676 333.41859737 293.21593496 333.41026307 288.09048533 333.39789867 C282.56757101 333.3888752 277.04470888 333.40280445 271.52180481 333.41381836 C260.69776221 333.43163712 249.87383035 333.42774866 239.04978335 333.4161678 C230.25556631 333.40714694 221.46138037 333.40590363 212.66716003 333.41026306 C211.41716897 333.41087599 210.1671779 333.41148893 208.87930831 333.41212043 C206.34025036 333.41339929 203.80119242 333.41469614 201.26213449 333.4160108 C178.11374678 333.42710078 154.96541705 333.41558552 131.81704267 333.39464041 C110.67633589 333.37565736 89.53572547 333.37735584 68.39501953 333.39648438 C44.65418003 333.41789365 20.9133872 333.4263277 -2.82746458 333.41403532 C-5.35736306 333.41276108 -7.88726154 333.4115036 -10.41716003 333.41026306 C-11.66203097 333.40964596 -12.9069019 333.40902886 -14.18949619 333.40839306 C-22.97667046 333.40493434 -31.76381062 333.41077971 -40.55097961 333.42018127 C-51.25457108 333.43138114 -61.95804516 333.42840364 -72.66162312 333.4070583 C-78.12638127 333.39652077 -83.59094345 333.39247199 -89.0557003 333.40565491 C-94.05326316 333.41752877 -99.05044746 333.41109932 -104.04797572 333.3897447 C-105.8608321 333.38525731 -107.67372013 333.38759242 -109.48655635 333.39724785 C-111.94168164 333.40932635 -114.39549239 333.39702531 -116.85054779 333.37836456 C-117.91841031 333.39241156 -117.91841031 333.39241156 -119.00784582 333.40674233 C-122.33907648 333.35576834 -124.11202603 333.07013238 -126.81793451 331.06228971 C-129.07947994 327.88538091 -128.85068316 325.68046525 -128.375 321.875 C-127.35661316 319.68463135 -127.35661316 319.68463135 -125.375 317.875 C-122.53075556 317.49365933 -120.07494012 317.36874579 -117.23168945 317.42089844 C-116.40219788 317.42031433 -115.5727063 317.41973022 -114.71807861 317.41912842 C-111.97438815 317.42191674 -109.23178207 317.45304335 -106.48828125 317.484375 C-104.58685398 317.49183474 -102.68541903 317.49752893 -100.78398132 317.50152588 C-95.77785031 317.5168032 -90.77218305 317.5561031 -85.76623535 317.6003418 C-80.65867385 317.64124927 -75.55103746 317.65952722 -70.44335938 317.6796875 C-60.42036909 317.7225953 -50.3977231 317.79087202 -40.375 317.875 C-40.30081345 316.91173798 -40.22662689 315.94847595 -40.15019226 314.95602417 C-38.37997677 292.02527961 -36.46753929 269.11174908 -34.38763428 246.20709229 C-34.0439435 242.41685064 -33.70277242 238.62638206 -33.36132812 234.8359375 C-32.70154964 227.51541306 -32.03920977 220.19512386 -31.375 212.875 C-32.14783325 212.57382767 -32.9206665 212.27265533 -33.71691895 211.96235657 C-36.52911354 210.81195588 -38.99250226 209.42410426 -41.59375 207.85546875 C-42.59913818 207.25105957 -43.60452637 206.64665039 -44.64038086 206.02392578 C-46.24151733 205.05302002 -46.24151733 205.05302002 -47.875 204.0625 C-48.97400635 203.39976074 -50.0730127 202.73702148 -51.20532227 202.05419922 C-59.50672789 197.03691211 -67.76818177 191.9556293 -76 186.82495117 C-77.22009766 186.06468628 -77.22009766 186.06468628 -78.46484375 185.2890625 C-79.17503662 184.8451416 -79.88522949 184.4012207 -80.61694336 183.94384766 C-84.312624 181.69698058 -86.8590366 181.73781223 -91.2109375 181.69921875 C-92.59897348 181.67601966 -93.98699437 181.65190228 -95.375 181.62695312 C-97.5629282 181.59184611 -99.75030104 181.56249815 -101.93847656 181.54907227 C-104.0508138 181.53357543 -106.16152985 181.49336133 -108.2734375 181.44921875 C-109.53849121 181.43463623 -110.80354492 181.42005371 -112.10693359 181.4050293 C-115.91794947 180.78694208 -117.12106392 179.961281 -119.375 176.875 C-119.9375 173.4375 -119.9375 173.4375 -119.375 169.875 C-116.72742162 166.46552856 -115.16897607 165.04879596 -110.91186523 164.11694336 C-106.54141847 163.94984987 -102.18613342 163.81204844 -97.8125 163.8125 C-97.02853851 163.80565186 -96.24457703 163.79880371 -95.43685913 163.79174805 C-80.94646756 163.76352303 -70.53514427 167.27450983 -59.375 176.875 C-59.61210693 176.08851074 -59.84921387 175.30202148 -60.09350586 174.49169922 C-61.17029279 170.91225999 -62.2414478 167.33115916 -63.3125 163.75 C-63.68568359 162.5125 -64.05886719 161.275 -64.44335938 160 C-64.80107422 158.80117188 -65.15878906 157.60234375 -65.52734375 156.3671875 C-65.85726318 155.26745605 -66.18718262 154.16772461 -66.52709961 153.03466797 C-68.758625 144.71897501 -68.758625 144.71897501 -67.125 141.125 C-65.375 138.875 -65.375 138.875 -62.375 136.875 C-56.23925985 137.20370037 -56.23925985 137.20370037 -53.75785828 139.13108826 C-52.0914839 141.23253993 -51.49154601 143.01401778 -50.74926758 145.59008789 C-50.46920364 146.54440201 -50.18913971 147.49871613 -49.90058899 148.48194885 C-49.60983994 149.51013229 -49.31909088 150.53831573 -49.01953125 151.59765625 C-48.71303146 152.65407822 -48.40653168 153.71050018 -48.09074402 154.79893494 C-47.44501373 157.03106473 -46.80395924 159.26455172 -46.16723633 161.49926758 C-45.18959948 164.93013219 -44.19866149 168.35692641 -43.20507812 171.78320312 C-42.57995277 173.95029702 -41.95557802 176.11760761 -41.33203125 178.28515625 C-40.88679863 179.83046776 -40.88679863 179.83046776 -40.43257141 181.40699768 C-40.16196396 182.35815964 -39.89135651 183.30932159 -39.61254883 184.28930664 C-39.37288895 185.12853165 -39.13322906 185.96775665 -38.88630676 186.83241272 C-38.375 188.875 -38.375 188.875 -38.375 190.875 C-37.611875 191.16375 -36.84875 191.4525 -36.0625 191.75 C-33.375 192.875 -33.375 192.875 -30.375 194.875 C-28.36798888 179.4305858 -27.04342605 163.91619855 -25.66064453 148.40649414 C-25.31728721 144.55674883 -24.968484 140.70751798 -24.61828423 136.85838985 C-24.34641412 133.8619026 -24.07784742 130.86512597 -23.810215 127.86825752 C-23.68295295 126.44852273 -23.55458838 125.02888628 -23.42504501 123.60935783 C-23.03875729 119.36687154 -22.69024929 115.12333133 -22.375 110.875 C-22.30112061 110.05741714 -22.22724121 109.23983429 -22.15112305 108.3974762 C-21.77299938 101.70376582 -25.2764216 98.09455414 -29.4387207 93.33081055 C-30.49381299 92.19317388 -31.55608641 91.06216023 -32.625 89.9375 C-33.16023285 89.36585114 -33.6954657 88.79420227 -34.24691772 88.20523071 C-42.58736555 79.59556348 -49.81869256 76.25219931 -61.81347656 75.97241211 C-67.23363957 76.01133645 -72.68421489 76.22948586 -78.0717926 76.84255981 C-81.45093068 77.15870572 -83.01260237 77.13808867 -85.80541992 75.1105957 C-88.07695614 71.87518473 -87.92626659 69.73386613 -87.375 65.875 C-85.15636971 62.96782927 -83.85555071 62.03518357 -80.375 60.875 C-77.80865139 60.64781504 -75.25821893 60.45891816 -72.6875 60.3125 C-71.98560547 60.26931641 -71.28371094 60.22613281 -70.56054688 60.18164062 C-68.83224794 60.0758264 -67.1036489 59.97493419 -65.375 59.875 C-65.79386475 59.48755615 -66.21272949 59.1001123 -66.64428711 58.70092773 C-68.54962407 56.92100803 -70.43080953 55.11738678 -72.3125 53.3125 C-72.97185547 52.70341797 -73.63121094 52.09433594 -74.31054688 51.46679688 C-77.53875809 48.33791523 -79.19941503 46.51463097 -80.4140625 42.08984375 C-80.375 38.875 -80.375 38.875 -78.8125 36 C-75.85597805 33.42251932 -74.28532112 32.875 -70.375 32.875 C-66.5288504 34.83281862 -63.70659542 37.29928292 -60.67651367 40.34643555 C-59.77595749 41.24714279 -58.87540131 42.14785004 -57.94755554 43.07585144 C-56.97925154 44.05436661 -56.0110585 45.0329916 -55.04296875 46.01171875 C-54.04164219 47.0167791 -53.03987044 48.02139609 -52.03767395 49.02558899 C-49.41112139 51.65974915 -46.79063277 54.29986145 -44.17138672 56.94128418 C-41.49356465 59.63962674 -38.81001648 62.33226141 -36.12695312 65.02539062 C-30.87070025 70.30304269 -25.62084423 75.58699974 -20.375 80.875 C-19.03822454 71.37295773 -17.94031226 61.90154813 -17.15625 52.3359375 C-16.94424838 49.8554484 -16.73200194 47.37498021 -16.51953125 44.89453125 C-16.1940008 41.04793695 -15.87095478 37.20116972 -15.55224609 33.35400391 C-15.23954912 29.59736965 -14.91730049 25.8416503 -14.59375 22.0859375 C-14.50097778 20.9338681 -14.40820557 19.78179871 -14.31262207 18.59481812 C-14.21912476 17.52244904 -14.12562744 16.45007996 -14.02929688 15.34521484 C-13.95094604 14.40672699 -13.87259521 13.46823914 -13.79187012 12.50131226 C-12.98648071 7.42730005 -11.29802859 4.20363032 -7.375 0.875 C-4.47245657 -0.09251448 -2.97950105 -0.23388575 0 0 Z " fill="#000000" transform="translate(152.375,179.125)"/>
<path d="M0 0 C4.39019764 2.54711597 8.12896245 5.73381206 12 9 C13.98531942 10.51937711 15.98466933 12.02066153 18 13.5 C18.86625 14.1496875 19.7325 14.799375 20.625 15.46875 C23.59880645 17.42375213 23.59880645 17.42375213 27 18 C31.70063349 16.13006349 35.50935398 13.25048357 39.4375 10.125 C40.58979436 9.2343111 41.74213758 8.3436854 42.89453125 7.453125 C44.62925507 6.08280229 46.35022215 4.69262056 48.01171875 3.234375 C52.28743172 -0.36840494 56.09582365 -0.70781519 61.48046875 -0.3984375 C65.24714608 0.1972231 66.6547105 0.94401671 69 4 C71.39757166 9.0658369 72.85007862 14.47126053 74.40625 19.83984375 C74.65898682 20.68925537 74.91172363 21.53866699 75.17211914 22.41381836 C75.67603144 24.11651149 76.1627018 25.82441788 76.63061523 27.53735352 C76.86466064 28.32940186 77.09870605 29.1214502 77.33984375 29.9375 C77.53956787 30.64777344 77.73929199 31.35804687 77.94506836 32.08984375 C79.48707412 34.88194121 81.10226487 35.71147745 84 37 C87.28734301 37.3472884 87.28734301 37.3472884 90.83984375 37.15234375 C92.15017578 37.12462891 93.46050781 37.09691406 94.81054688 37.06835938 C96.87552223 37.00627515 98.94006968 36.93740743 101.00463867 36.86303711 C103.01170499 36.79628642 105.0195752 36.75529511 107.02734375 36.71484375 C108.22093506 36.67480225 109.41452637 36.63476074 110.64428711 36.59350586 C114.73527252 37.08906721 116.81057322 38.44155719 120 41 C122.85041002 45.04574326 123.21393417 47.75679771 122.51879883 52.60107422 C121.2413998 58.50776734 118.84014047 64.13584935 116.70703125 69.77539062 C116.34738281 70.76087891 115.98773438 71.74636719 115.6171875 72.76171875 C115.28315918 73.64819092 114.94913086 74.53466309 114.60498047 75.44799805 C113.89239596 78.45390839 113.9767713 80.08734986 115 83 C117.45658279 85.91601747 120.23185598 87.97565356 123.40625 90.05859375 C124.64568359 90.88520508 124.64568359 90.88520508 125.91015625 91.72851562 C127.63492517 92.866655 129.36148826 94.00208016 131.08984375 95.13476562 C139.44660464 100.72114946 139.44660464 100.72114946 142 105 C142.49609375 107.5 142.49609375 107.5 142.4375 110 C142.43556641 111.2375 142.43556641 111.2375 142.43359375 112.5 C141.52120656 117.76061082 138.95873811 120.20121944 134.7265625 123.19140625 C133.03287753 124.32538127 131.33208234 125.44879538 129.625 126.5625 C120.44178905 131.62945747 120.44178905 131.62945747 114.25830078 139.23730469 C113.93502975 142.69489919 114.7067381 144.86012741 115.90625 148.11328125 C116.32003906 149.27923828 116.73382813 150.44519531 117.16015625 151.64648438 C118.04960823 154.08015984 118.94280737 156.51246924 119.83984375 158.94335938 C123.85754575 170.30181596 123.85754575 170.30181596 122 177 C119.07638581 180.73572924 116.47954203 182.58240827 112 184 C108.84960938 184.14770508 108.84960938 184.14770508 105.34375 184.01953125 C104.07402344 183.99052734 102.80429687 183.96152344 101.49609375 183.93164062 C98.83165645 183.85220237 96.16754264 183.76105126 93.50390625 183.65820312 C92.23417969 183.63306641 90.96445312 183.60792969 89.65625 183.58203125 C87.92084961 183.52366089 87.92084961 183.52366089 86.15039062 183.46411133 C81.94272611 184.17984471 80.59182975 185.66327654 78 189 C76.70142371 191.86844533 76.70142371 191.86844533 75.9375 195 C75.61523438 196.134375 75.29296875 197.26875 74.9609375 198.4375 C74.48527344 200.2009375 74.48527344 200.2009375 74 202 C70.17286085 216.18841832 70.17286085 216.18841832 65 220 C61.24539724 221.87730138 57.98568347 221.94397766 54 221 C47.88593506 217.41068423 42.42743394 212.9437838 36.90234375 208.51953125 C35.96519531 207.79121094 35.02804687 207.06289062 34.0625 206.3125 C33.24910156 205.64863281 32.43570313 204.98476562 31.59765625 204.30078125 C27.81744878 202.40783526 26.0459523 202.77484691 22 204 C18.74704095 206.04305052 15.82662717 208.42265305 12.875 210.875 C-0.09808182 221.41962315 -0.09808182 221.41962315 -5.375 221.5625 C-6.43847656 221.62630859 -6.43847656 221.62630859 -7.5234375 221.69140625 C-11.69313677 220.5273104 -14.35217026 218.41311426 -17 215 C-18.82774496 210.7617666 -19.97639732 206.40127563 -21.125 201.9375 C-21.73749407 199.60925371 -22.36463015 197.28479984 -23.0078125 194.96484375 C-23.27223145 193.9399585 -23.53665039 192.91507324 -23.80908203 191.85913086 C-25.31220396 188.25046728 -26.90537384 186.38791088 -30 184 C-33.14722102 183.37983541 -33.14722102 183.37983541 -36.55078125 183.65234375 C-37.80697266 183.68650391 -39.06316406 183.72066406 -40.35742188 183.75585938 C-41.66259766 183.81580078 -42.96777344 183.87574219 -44.3125 183.9375 C-60.26537617 184.62902976 -60.26537617 184.62902976 -67 180 C-70.26205525 174.85979173 -70.26458424 170.76655214 -69 165 C-67.4462752 160.23957592 -65.56724263 155.60444898 -63.70703125 150.95703125 C-60.8720548 144.08877223 -60.8720548 144.08877223 -62 137 C-64.29407077 134.60484424 -64.29407077 134.60484424 -67.3125 132.625 C-67.84286865 132.24633789 -68.3732373 131.86767578 -68.91967773 131.47753906 C-71.68702982 129.52047158 -74.51177846 127.65806384 -77.359375 125.8203125 C-78.41640625 125.13710937 -79.4734375 124.45390625 -80.5625 123.75 C-81.53316406 123.14671875 -82.50382812 122.5434375 -83.50390625 121.921875 C-86.83073886 119.36037008 -88.63193675 116.90663396 -89.43359375 112.75390625 C-89.43488281 112.03074219 -89.43617188 111.30757813 -89.4375 110.5625 C-89.45683594 109.84191406 -89.47617187 109.12132813 -89.49609375 108.37890625 C-88.10093404 101.68873093 -83.4811749 98.62988135 -78.08984375 95.046875 C-77.23519531 94.49515625 -76.38054687 93.9434375 -75.5 93.375 C-73.79945253 92.26182112 -72.10144425 91.14475163 -70.40625 90.0234375 C-69.65666016 89.53794434 -68.90707031 89.05245117 -68.13476562 88.55224609 C-64.96840841 86.24990172 -62.50606547 84.37654346 -61.12866211 80.62988281 C-60.96541798 77.29313571 -61.7636155 75.04567491 -62.94140625 71.921875 C-63.35970703 70.76042969 -63.77800781 69.59898438 -64.20898438 68.40234375 C-65.10671414 65.97989835 -66.01288761 63.56056433 -66.92773438 61.14453125 C-69.15862036 54.90356738 -70.70854229 50.21976081 -68.83764648 43.72949219 C-67.14863097 40.24217482 -64.34047797 38.67023898 -61 37 C-58.34803952 36.87679192 -55.72335567 36.8116217 -53.0703125 36.796875 C-51.89020096 36.78832489 -51.89020096 36.78832489 -50.68624878 36.77960205 C-49.02017564 36.77014968 -47.35408378 36.76361713 -45.68798828 36.75976562 C-43.14191977 36.75006447 -40.59666007 36.71904622 -38.05078125 36.6875 C-36.43229646 36.68096941 -34.8138059 36.67571916 -33.1953125 36.671875 C-32.4347757 36.6595282 -31.67423889 36.6471814 -30.89065552 36.63446045 C-27.64980497 36.64808265 -25.3789863 36.78762571 -22.52319336 38.38793945 C-20.5613402 40.46425239 -20.43272625 41.60666596 -20.4375 44.4375 C-20.41558594 45.19933594 -20.39367187 45.96117187 -20.37109375 46.74609375 C-21.30866484 50.10620879 -23.1333214 51.10322252 -26 53 C-28.9543457 53.45410156 -28.9543457 53.45410156 -32.17578125 53.390625 C-33.33271484 53.37773438 -34.48964844 53.36484375 -35.68164062 53.3515625 C-36.87982422 53.31804688 -38.07800781 53.28453125 -39.3125 53.25 C-40.53001953 53.23195312 -41.74753906 53.21390625 -43.00195312 53.1953125 C-46.00210422 53.14825131 -49.00064889 53.0825131 -52 53 C-51.78794922 53.54825439 -51.57589844 54.09650879 -51.35742188 54.66137695 C-42.62927348 77.51521825 -42.62927348 77.51521825 -46.5 89.25 C-50.44845316 97.94208092 -58.77743431 102.34382236 -66.55859375 107.30078125 C-69.08417529 108.76947861 -69.08417529 108.76947861 -70 111 C-68.38931641 112.051875 -68.38931641 112.051875 -66.74609375 113.125 C-48.40864805 125.28544077 -48.40864805 125.28544077 -45 135 C-43.98531338 142.97198195 -45.77216713 149.75705179 -48.5 157.1875 C-48.83386719 158.13947266 -49.16773438 159.09144531 -49.51171875 160.07226562 C-50.32607673 162.38736902 -51.15545013 164.69577789 -52 167 C-50.89712646 167.00616333 -50.89712646 167.00616333 -49.77197266 167.01245117 C-46.38887271 167.04567093 -43.00750646 167.11634695 -39.625 167.1875 C-37.89056641 167.19620117 -37.89056641 167.19620117 -36.12109375 167.20507812 C-27.78243745 167.41707786 -20.2693809 168.6719295 -14.18847656 174.83642578 C-8.89459252 181.41873985 -4 194.45856289 -4 203 C-3.55197021 202.65743164 -3.10394043 202.31486328 -2.64233398 201.96191406 C-0.57734129 200.38691513 1.49252258 198.81844104 3.5625 197.25 C4.26697266 196.71117187 4.97144531 196.17234375 5.69726562 195.6171875 C15.09609558 188.51392431 21.80627142 185.35532428 34 187 C37.85941167 188.40942851 40.77433339 190.48240655 44 193 C45.16569228 193.87629768 46.33243003 194.7512057 47.5 195.625 C50.7011465 198.04110547 53.85775189 200.50787218 57 203 C57.21914063 201.98421875 57.43828125 200.9684375 57.6640625 199.921875 C62.7399337 177.43008916 62.7399337 177.43008916 71.75 171.3125 C76.30572673 168.68598408 78.99286971 167.87834626 84.3203125 167.90234375 C85.57714844 167.90556641 86.83398438 167.90878906 88.12890625 167.91210938 C89.44761719 167.92048828 90.76632812 167.92886719 92.125 167.9375 C93.46484211 167.94251511 94.804686 167.94707799 96.14453125 167.95117188 C99.42973206 167.96298914 102.71484397 167.97946383 106 168 C105.04235345 165.43724147 104.0839064 162.87478711 103.125 160.3125 C102.72087891 159.2306543 102.72087891 159.2306543 102.30859375 158.12695312 C101.91220703 157.06831055 101.91220703 157.06831055 101.5078125 155.98828125 C101.24983887 155.29581299 100.99186523 154.60334473 100.72607422 153.88989258 C100.13715083 152.35698877 99.49095886 150.84617341 98.828125 149.34375 C96.79135364 143.57930276 97.00074006 136.36901264 99.4375 130.75 C104.24873804 122.63627453 112.82846155 117.58600038 120.59375 112.6640625 C123.08845893 111.22414614 123.08845893 111.22414614 124 109 C123.31808594 108.76410156 122.63617188 108.52820313 121.93359375 108.28515625 C112.55403414 104.17613479 103.48990971 97.34283339 99 88 C94.96776929 75.90330786 100.62362816 64.20697045 105 53 C103.88141602 53.0314209 103.88141602 53.0314209 102.74023438 53.06347656 C99.32696275 53.14716634 95.91390776 53.19882794 92.5 53.25 C91.32695312 53.28351562 90.15390625 53.31703125 88.9453125 53.3515625 C80.65001121 53.44476813 75.21678346 52.48537677 68.79296875 47.17578125 C64.62755882 42.34147337 62.62733568 38.12100126 61 32 C60.27671897 29.64401841 59.54730964 27.28991142 58.8125 24.9375 C58.20728575 22.95865342 57.60275236 20.97959785 57 19 C54.36554888 19 53.60860321 19.9019975 51.55078125 21.51953125 C50.86693359 22.04740234 50.18308594 22.57527344 49.47851562 23.11914062 C48.05231197 24.23412581 46.62778567 25.35126039 45.20507812 26.47070312 C38.09971196 31.9440244 32.21293722 34.74939321 23.0390625 34.46484375 C17.7777447 33.66009206 14.19824435 31.14714657 10 28 C9.44006348 27.58234375 8.88012695 27.1646875 8.30322266 26.734375 C4.4903958 23.87860154 0.73228428 20.96008753 -3 18 C-3.92554688 18.81339844 -4.85109375 19.62679688 -5.8046875 20.46484375 C-8.14565702 22.52215819 -8.91627005 22.98492861 -12.125 23.5625 C-15 23 -15 23 -17.375 21.4375 C-19.64623596 18.03064606 -19.4720888 16.04647545 -19 12 C-18.00571748 7.90814503 -16.63831057 4.79788821 -14 1.5 C-9.2245277 -0.88773615 -5.20716288 -1.21612449 0 0 Z " fill="#010100" transform="translate(346,0)"/>
<path d="M0 0 C11.32537803 8.70300395 19.80070945 20.59240271 22 35 C23.38572446 51.31065836 18.58689774 65.1859322 8.3125 77.6875 C-1.24628802 87.95367461 -13.1719501 92.99548984 -27.03076172 93.52172852 C-42.17657243 93.73417185 -53.43773056 90.27958017 -65 80 C-75.50978845 69.18002682 -80.8020423 56.62020995 -81.375 41.6875 C-81.10620218 28.21598586 -75.39022984 15.42265379 -66.1875 5.625 C-47.66222479 -11.57959085 -21.06380253 -14.15561546 0 0 Z " fill="#E49441" transform="translate(402,68)"/>
<path d="M0 0 C0.66 0 1.32 0 2 0 C2.09578339 1.12291946 2.19156677 2.24583893 2.29025269 3.40278625 C3.20007766 14.06624221 4.11189539 24.72952621 5.02558708 35.39265156 C5.49508577 40.872606 5.96391993 46.3526155 6.43115234 51.83276367 C6.8833944 57.13678539 7.33749044 62.4406456 7.79278946 67.74440575 C7.96483417 69.75218424 8.13624814 71.7600169 8.3069725 73.7679081 C9.15455754 83.7315636 10.03542119 93.69014311 11.05908203 103.63745117 C11.13858534 104.42482068 11.21808865 105.21219019 11.30000114 106.02341938 C11.65955939 109.43064839 12.11720191 112.69138916 13 116 C15.31 116.66 17.62 117.32 20 118 C21.88181209 132.34881716 21.88181209 132.34881716 21 138 C18.5625 140.125 18.5625 140.125 16 141 C14.73860602 142.03949859 14.73860602 142.03949859 14.8671875 144.328125 C14.87105469 145.77445312 14.87105469 145.77445312 14.875 147.25 C14.87242187 148.20390625 14.86984375 149.1578125 14.8671875 150.140625 C14.92182213 152.91990259 14.92182213 152.91990259 15.46876526 155.27789307 C16.06327831 158.32424523 16.36143953 161.32092059 16.63256836 164.41308594 C16.74616196 165.69342712 16.85975555 166.97376831 16.97679138 168.29290771 C17.09789298 169.69005619 17.218908 171.08721216 17.33984375 172.484375 C17.46793059 173.94193371 17.59623573 175.39947325 17.7247467 176.85699463 C17.99454257 179.92339771 18.26251668 182.9899525 18.52905273 186.05664062 C18.86381241 189.90802621 19.20172447 193.75912593 19.54083824 197.61013031 C20.31482847 206.40160978 21.07762517 215.19400922 21.82820892 223.98751831 C21.99457551 225.93645366 22.16149355 227.88534191 22.32843018 229.83422852 C22.62073581 233.26932534 22.90735081 236.70483726 23.19140625 240.140625 C23.27502914 241.12190369 23.35865204 242.10318237 23.44480896 243.11419678 C23.51917679 244.03074036 23.59354462 244.94728394 23.67016602 245.89160156 C23.73446304 246.6674762 23.79876007 247.44335083 23.86500549 248.24273682 C24.05666554 252.15739387 24 256.08065395 24 260 C8.82 260 -6.36 260 -22 260 C-22 246.50137428 -22 246.50137428 -21.45263672 240.74023438 C-21.33162094 239.43633759 -21.21060516 238.1324408 -21.08592224 236.78903198 C-20.95057821 235.39059812 -20.81516447 233.99217099 -20.6796875 232.59375 C-20.53874303 231.09454214 -20.39834154 229.59528315 -20.25843811 228.09597778 C-19.95923972 224.89940517 -19.65681382 221.70316174 -19.35177612 218.50714111 C-18.86586209 213.4133683 -18.38815105 208.31884774 -17.91235352 203.22412109 C-17.83202661 202.3640489 -17.7516997 201.50397671 -17.66893864 200.61784172 C-17.5058048 198.87073606 -17.34270784 197.12362695 -17.17964745 195.37651443 C-16.93259226 192.7314652 -16.68489385 190.08647681 -16.43708801 187.4414978 C-14.88327905 170.84070992 -13.39678046 154.23433402 -11.9375 137.625 C-11.81585677 136.24245111 -11.69420352 134.85990309 -11.57254028 133.47735596 C-9.37229087 108.46052872 -7.2232287 83.43925944 -5.09155273 58.41650391 C-3.43169116 38.94098062 -1.72838992 19.46955873 0 0 Z " fill="#8A5C5C" transform="translate(150,237)"/>
<path d="M0 0 C11.32537803 8.70300395 19.80070945 20.59240271 22 35 C23.38572446 51.31065836 18.58689774 65.1859322 8.3125 77.6875 C-1.24628802 87.95367461 -13.1719501 92.99548984 -27.03076172 93.52172852 C-42.17657243 93.73417185 -53.43773056 90.27958017 -65 80 C-75.50978845 69.18002682 -80.8020423 56.62020995 -81.375 41.6875 C-81.10620218 28.21598586 -75.39022984 15.42265379 -66.1875 5.625 C-47.66222479 -11.57959085 -21.06380253 -14.15561546 0 0 Z M-58 19 C-64.34132653 27.70057274 -67.15999095 36.2205719 -66 47 C-63.01624639 59.45794035 -56.8728577 67.88151282 -46.3515625 75.13671875 C-38.58095237 79.5134458 -28.62355905 79.24550108 -20 78 C-15.52367946 76.57269864 -11.86618181 74.64728705 -8 72 C-7.39027344 71.61714844 -6.78054688 71.23429687 -6.15234375 70.83984375 C1.23605591 65.56781432 5.40112753 55.66826726 7 47 C8.18222315 36.95840093 5.71427658 28.3354934 -0.25 20.1875 C-7.23650203 11.8984298 -15.52891961 6.91991439 -26.39453125 5.58203125 C-39.1620465 5.06119546 -49.53381497 9.3770491 -58 19 Z " fill="#040300" transform="translate(402,68)"/>
<path d="M0 0 C2.41694329 3.62541494 2.63483571 4.71485893 2 9 C-1.90173992 15.93301063 -7.08251315 22.23288801 -11.875 28.5625 C-12.90753906 29.93245117 -12.90753906 29.93245117 -13.9609375 31.33007812 C-15.63841645 33.55506756 -17.31812964 35.77832935 -19 38 C-16.10189136 42.47536347 -13.16691766 46.8771064 -9.859375 51.0625 C-9.34632813 51.71476562 -8.83328125 52.36703125 -8.3046875 53.0390625 C-7.26217068 54.35399578 -6.20992126 55.66126713 -5.1484375 56.9609375 C-1.51217013 61.63086463 0.80035059 65.97906607 1 72 C-0.74340311 78.43606316 -5.00086604 83.38023415 -9 88.625 C-10.25199257 90.28235082 -11.50205534 91.94116156 -12.75 93.6015625 C-13.30171875 94.32682129 -13.8534375 95.05208008 -14.421875 95.79931641 C-16.09109335 98.12702899 -17.55817582 100.52620753 -19 103 C-18.60208252 103.50337891 -18.20416504 104.00675781 -17.79418945 104.52539062 C-15.96279979 106.84701284 -14.13763319 109.17345659 -12.3125 111.5 C-11.68666016 112.29148437 -11.06082031 113.08296875 -10.41601562 113.8984375 C1 128.48224804 1 128.48224804 1 136 C-1.15605016 142.24242683 -4.72731563 147.07596596 -8.6875 152.3125 C-9.31237305 153.149021 -9.93724609 153.98554199 -10.58105469 154.84741211 C-21.77762917 169.77762917 -21.77762917 169.77762917 -26 174 C-29.00747378 174.33955349 -31.09892278 174.55613536 -34 174 C-36.82070495 171.6024008 -37.80115142 170.02507215 -38.50390625 166.40234375 C-37.72548035 161.14646032 -34.65196173 157.80735217 -31.4375 153.6875 C-30.82841797 152.88376953 -30.21933594 152.08003906 -29.59179688 151.25195312 C-27.74410873 148.82160777 -25.87573331 146.40874975 -24 144 C-22.99670654 142.70763428 -22.99670654 142.70763428 -21.97314453 141.38916016 C-20.31742514 139.25787511 -18.65971442 137.12817447 -17 135 C-21.29482944 128.2995743 -25.98483581 121.9596659 -30.86035156 115.67382812 C-34.48043367 110.93791981 -37 107.40450784 -37 101.25 C-36.08944537 95.89554289 -33.23083657 92.25723952 -30 88 C-29.48663086 87.3203418 -28.97326172 86.64068359 -28.44433594 85.94042969 C-24.66003473 80.93662409 -20.84176637 75.95979042 -17 71 C-21.29482944 64.2995743 -25.98483581 57.9596659 -30.86035156 51.67382812 C-34.48043367 46.93791981 -37 43.40450784 -37 37.25 C-35.54802025 28.27459865 -27.23352064 20.1913549 -21.875 13.1875 C-21.17246094 12.26001953 -20.46992188 11.33253906 -19.74609375 10.37695312 C-19.06417969 9.48298828 -18.38226563 8.58902344 -17.6796875 7.66796875 C-17.06851074 6.86641357 -16.45733398 6.0648584 -15.82763672 5.23901367 C-11.18713526 -0.44600355 -11.18713526 -0.44600355 -8.125 -1.875 C-5.03218848 -2.05693009 -2.82050199 -1.22630521 0 0 Z " fill="#000000" transform="translate(442,242)"/>
<path d="M0 0 C2.42520546 2.42520546 2.68564441 3.62067741 3 7 C1.75177852 10.87457893 -0.10980287 13.73603215 -2.58984375 16.94140625 C-3.29173828 17.85470703 -3.99363281 18.76800781 -4.71679688 19.70898438 C-5.44962891 20.65064453 -6.18246094 21.59230469 -6.9375 22.5625 C-7.66646484 23.50802734 -8.39542969 24.45355469 -9.14648438 25.42773438 C-10.50245251 27.18639148 -11.86083113 28.94319462 -13.22241211 30.69750977 C-13.80901611 31.45733154 -14.39562012 32.21715332 -15 33 C-15.61302979 33.65605225 -16.22605957 34.31210449 -16.85766602 34.98803711 C-18.29944373 36.99165723 -18.29944373 36.99165723 -17.40039062 39.45483398 C-15.96379697 42.06579786 -14.41142078 44.36128124 -12.59375 46.72265625 C-11.93246094 47.59083984 -11.27117187 48.45902344 -10.58984375 49.35351562 C-9.90019531 50.24748047 -9.21054687 51.14144531 -8.5 52.0625 C-7.13249544 53.84281202 -5.76779622 55.62528328 -4.40625 57.41015625 C-3.80103516 58.19527588 -3.19582031 58.98039551 -2.57226562 59.78930664 C0.48476881 64.08766794 1.59635092 67.34744186 1.41796875 72.60546875 C0.48094769 77.97363612 -3.25327857 81.8338726 -6.59228516 85.97460938 C-7.79058366 87.46133208 -8.98272956 88.95303139 -10.16918945 90.44921875 C-11.38040645 91.97135623 -12.60931028 93.47960158 -13.85620117 94.97265625 C-14.41927979 95.67777344 -14.9823584 96.38289063 -15.5625 97.109375 C-16.07941406 97.73811523 -16.59632813 98.36685547 -17.12890625 99.01464844 C-18.26004674 101.03620126 -18.26004674 101.03620126 -17.36523438 103.44799805 C-15.95634191 106.08160909 -14.41534306 108.35618571 -12.59375 110.72265625 C-11.93246094 111.59083984 -11.27117187 112.45902344 -10.58984375 113.35351562 C-9.90019531 114.24748047 -9.21054687 115.14144531 -8.5 116.0625 C-7.13249544 117.84281202 -5.76779622 119.62528328 -4.40625 121.41015625 C-3.80103516 122.19527588 -3.19582031 122.98039551 -2.57226562 123.78930664 C1.01737688 128.83654467 2.00158398 132.87586052 1 139 C-0.07788086 141.06079102 -0.07788086 141.06079102 -1.52734375 143.12890625 C-2.07181152 143.90854736 -2.6162793 144.68818848 -3.17724609 145.49145508 C-6.41900326 149.95288755 -9.71472375 154.36757022 -13.0625 158.75 C-13.75666016 159.66910156 -14.45082031 160.58820313 -15.16601562 161.53515625 C-24.48068606 173.76010832 -24.48068606 173.76010832 -29.5625 174.5625 C-33 174 -33 174 -35.4375 172.5 C-37.62370861 169.00206623 -37.81751326 165.95695259 -37 162 C-35.16482581 158.6823864 -32.82179073 155.88494842 -30.375 153 C-29.13224232 151.47963256 -27.89005037 149.9588025 -26.6484375 148.4375 C-24.82532494 146.2199128 -23.00230109 144.00276278 -21.16503906 141.796875 C-20.6078418 141.10078125 -20.05064453 140.4046875 -19.4765625 139.6875 C-18.97463379 139.07261719 -18.47270508 138.45773437 -17.95556641 137.82421875 C-16.82843913 136.05730497 -16.82843913 136.05730497 -17.12475586 134.07226562 C-18.24587428 131.41785749 -19.75049646 129.42619052 -21.52734375 127.15625 C-22.23697266 126.23972656 -22.94660156 125.32320313 -23.67773438 124.37890625 C-24.42345703 123.42886719 -25.16917969 122.47882813 -25.9375 121.5 C-27.40794051 119.61691633 -28.87550961 117.73158604 -30.33984375 115.84375 C-30.99331787 115.01037109 -31.64679199 114.17699219 -32.32006836 113.31835938 C-35.45928085 108.98614576 -36.59883471 105.72577078 -36.41796875 100.39453125 C-35.47968909 95.01915341 -31.72905839 91.18382003 -28.42382812 87.00927734 C-27.23857686 85.50987504 -26.05728374 84.00733677 -24.87963867 82.50195312 C-23.67717934 80.97040476 -22.46130074 79.44928919 -21.23168945 77.93945312 C-20.39190552 76.87694336 -20.39190552 76.87694336 -19.53515625 75.79296875 C-19.023479 75.1589917 -18.51180176 74.52501465 -17.98461914 73.87182617 C-16.82759699 72.06593062 -16.82759699 72.06593062 -17.12109375 70.06567383 C-18.24760813 67.41805212 -19.75302872 65.42295553 -21.52734375 63.15625 C-22.23697266 62.23972656 -22.94660156 61.32320313 -23.67773438 60.37890625 C-24.42345703 59.42886719 -25.16917969 58.47882813 -25.9375 57.5 C-27.40794051 55.61691633 -28.87550961 53.73158604 -30.33984375 51.84375 C-30.99331787 51.01037109 -31.64679199 50.17699219 -32.32006836 49.31835938 C-35.41528429 45.04686243 -36.61298032 41.79594648 -36.41357422 36.53027344 C-35.94796023 33.6816174 -35.12363159 32.22393056 -33.4765625 29.87109375 C-32.93225586 29.09145264 -32.38794922 28.31181152 -31.82714844 27.50854492 C-28.5724001 23.04000681 -25.24464002 18.63240752 -21.875 14.25 C-21.17246094 13.33089844 -20.46992188 12.41179687 -19.74609375 11.46484375 C-17.83719713 8.9713701 -15.92654986 6.47986033 -14 4 C-13.30277832 3.09604492 -12.60555664 2.19208984 -11.88720703 1.26074219 C-10 -1 -10 -1 -8.125 -1.9375 C-5.08466697 -2.02692156 -2.79202836 -1.15322911 0 0 Z " fill="#000000" transform="translate(390,242)"/>
<path d="M0 0 C1.5570166 3.11403319 1.79979937 5.66458551 1 9 C-1.21772429 12.75453494 -3.93324028 16.06479032 -6.6875 19.4375 C-8.13209851 21.24615282 -9.57356477 23.05731234 -11.01171875 24.87109375 C-11.69669434 25.73331543 -12.38166992 26.59553711 -13.08740234 27.48388672 C-15.65167993 30.85731597 -17.83972081 34.35692563 -20 38 C-19.60208252 38.50337891 -19.20416504 39.00675781 -18.79418945 39.52539062 C-16.96279979 41.84701284 -15.13763319 44.17345659 -13.3125 46.5 C-12.68666016 47.29148437 -12.06082031 48.08296875 -11.41601562 48.8984375 C0.74552508 64.43464657 0.74552508 64.43464657 0 72 C-2.78204097 78.55418173 -6.66879809 83.73717289 -11.125 89.25 C-12.38073917 90.81519831 -13.63346512 92.38282002 -14.8828125 93.953125 C-15.43340332 94.63536133 -15.98399414 95.31759766 -16.55126953 96.02050781 C-17.95891509 97.94386309 -19.00422505 99.83936763 -20 102 C-19.60208252 102.50337891 -19.20416504 103.00675781 -18.79418945 103.52539062 C-16.96279979 105.84701284 -15.13763319 108.17345659 -13.3125 110.5 C-12.68666016 111.29148437 -12.06082031 112.08296875 -11.41601562 112.8984375 C0.7492558 128.43941252 0.7492558 128.43941252 0 136 C-2.25986524 142.43304865 -6.59797982 147.68625294 -10.8125 152.9375 C-11.69905273 154.05801758 -11.69905273 154.05801758 -12.60351562 155.20117188 C-13.79352565 156.70523035 -14.98638182 158.2070415 -16.18212891 159.70654297 C-18.66010824 162.83280377 -21.0943344 165.9922739 -23.52612305 169.15454102 C-26.55739108 172.95002803 -26.55739108 172.95002803 -30.875 173.4375 C-34.18476475 173.34104055 -34.85291415 173.11838617 -37.5625 170.9375 C-39.36200086 167.26025911 -39.27881692 164.7883988 -38 161 C-36.02928437 157.67144248 -33.69592028 154.66683709 -31.3125 151.625 C-30.07740425 150.0145702 -28.84431891 148.40259649 -27.61328125 146.7890625 C-27.01209473 146.0043457 -26.4109082 145.21962891 -25.79150391 144.41113281 C-23.04053163 140.70867952 -20.50595866 136.87110616 -18 133 C-18.46897705 132.39003174 -18.9379541 131.78006348 -19.42114258 131.15161133 C-21.5543102 128.3739806 -23.68343779 125.59327859 -25.8125 122.8125 C-26.55048828 121.85279297 -27.28847656 120.89308594 -28.04882812 119.90429688 C-29.11713867 118.50727539 -29.11713867 118.50727539 -30.20703125 117.08203125 C-30.8616333 116.22843018 -31.51623535 115.3748291 -32.19067383 114.49536133 C-35.40389395 110.06379705 -37.66644077 106.55932058 -38 101 C-36.82929015 93.7415989 -32.49284872 88.94819748 -28 83.3125 C-26.53882813 81.45665845 -25.08037862 79.59866942 -23.625 77.73828125 C-22.97789062 76.92399658 -22.33078125 76.10971191 -21.6640625 75.27075195 C-20.1720183 73.2347333 -19.04052385 71.29223989 -18 69 C-18.46897705 68.39003174 -18.9379541 67.78006348 -19.42114258 67.15161133 C-21.5543102 64.3739806 -23.68343779 61.59327859 -25.8125 58.8125 C-26.55048828 57.85279297 -27.28847656 56.89308594 -28.04882812 55.90429688 C-28.76103516 54.97294922 -29.47324219 54.04160156 -30.20703125 53.08203125 C-30.8616333 52.22843018 -31.51623535 51.3748291 -32.19067383 50.49536133 C-35.40389395 46.06379705 -37.66644077 42.55932058 -38 37 C-36.81283941 29.87703645 -32.71678617 25.18496451 -28.3125 19.625 C-27.61705078 18.73039062 -26.92160156 17.83578125 -26.20507812 16.9140625 C-24.82093006 15.13573595 -23.43183431 13.36124832 -22.03759766 11.59082031 C-19.48149353 8.34071524 -16.956878 5.06671226 -14.43432617 1.79052734 C-12.87537494 -0.1555745 -11.58170683 -1.71991893 -9.3125 -2.8125 C-5.69633133 -3.10570286 -3.17195764 -1.61590295 0 0 Z " fill="#000000" transform="translate(340,243)"/>
<path d="M0 0 C0.66 0 1.32 0 2 0 C2.09578339 1.12291946 2.19156677 2.24583893 2.29025269 3.40278625 C3.20007766 14.06624221 4.11189539 24.72952621 5.02558708 35.39265156 C5.49508577 40.872606 5.96391993 46.3526155 6.43115234 51.83276367 C6.8833944 57.13678539 7.33749044 62.4406456 7.79278946 67.74440575 C7.96483417 69.75218424 8.13624814 71.7600169 8.3069725 73.7679081 C9.15455754 83.7315636 10.03542119 93.69014311 11.05908203 103.63745117 C11.13858534 104.42482068 11.21808865 105.21219019 11.30000114 106.02341938 C11.65955939 109.43064839 12.11720191 112.69138916 13 116 C15.31 116.66 17.62 117.32 20 118 C21.88181209 132.34881716 21.88181209 132.34881716 21 138 C18.5625 140.125 18.5625 140.125 16 141 C14.73860602 142.03949859 14.73860602 142.03949859 14.8671875 144.328125 C14.87105469 145.77445312 14.87105469 145.77445312 14.875 147.25 C14.87242187 148.20390625 14.86984375 149.1578125 14.8671875 150.140625 C14.92182213 152.91990259 14.92182213 152.91990259 15.46876526 155.27789307 C16.06327831 158.32424523 16.36143953 161.32092059 16.63256836 164.41308594 C16.74616196 165.69342712 16.85975555 166.97376831 16.97679138 168.29290771 C17.09789298 169.69005619 17.218908 171.08721216 17.33984375 172.484375 C17.46793059 173.94193371 17.59623573 175.39947325 17.7247467 176.85699463 C17.99454257 179.92339771 18.26251668 182.9899525 18.52905273 186.05664062 C18.86381241 189.90802621 19.20172447 193.75912593 19.54083824 197.61013031 C20.31482847 206.40160978 21.07762517 215.19400922 21.82820892 223.98751831 C21.99457551 225.93645366 22.16149355 227.88534191 22.32843018 229.83422852 C22.62073581 233.26932534 22.90735081 236.70483726 23.19140625 240.140625 C23.27502914 241.12190369 23.35865204 242.10318237 23.44480896 243.11419678 C23.90325567 248.76430653 24.07497188 254.33111144 24 260 C20.04 260 16.08 260 12 260 C9.87724528 239.25936872 7.93383226 218.50825502 6.10367155 197.7399869 C5.75189045 193.75323985 5.39789518 189.76668939 5.0440979 185.78012085 C4.22796713 176.58029205 3.41422538 167.38025284 2.60089874 158.18017578 C1.55858958 146.39045491 0.5155621 134.60079842 -0.53049409 122.81140935 C-0.94885024 118.0953901 -1.36578982 113.3792485 -1.78158975 108.66300321 C-2.0396791 105.73881249 -2.29896029 102.81472832 -2.5585537 99.89067078 C-2.73464969 97.90302015 -2.90930464 95.91524201 -3.08390808 93.92745972 C-3.61718022 87.93391994 -4.19863393 81.9638934 -5 76 C-5.33 76 -5.66 76 -6 76 C-5.26026908 60.79691537 -3.92082721 45.64523662 -2.61352539 30.48254395 C-2.31686967 27.03602993 -2.02281623 23.5892939 -1.72851562 20.14257812 C-1.15482848 13.42817128 -0.57835074 6.71400671 0 0 Z " fill="#755050" transform="translate(150,237)"/>
<path d="M0 0 C0.33 0 0.66 0 1 0 C1.60368476 11.76067344 -0.70286298 21.54074831 -8 31 C-10.78236926 33.74045032 -13.70890781 35.90768675 -17 38 C-17.63035156 38.43441406 -18.26070313 38.86882812 -18.91015625 39.31640625 C-26.45235848 43.61980991 -36.62718413 43.22317801 -45 42 C-54.68463983 38.84969743 -61.39872068 33.3219007 -67 25 C-66.34 24.67 -65.68 24.34 -65 24 C-62.86328125 24.92578125 -62.86328125 24.92578125 -60.3125 26.3125 C-49.60546743 31.79547543 -38.99970718 32.64816308 -27.3125 29.5 C-16.18007972 25.63551793 -7.56518011 18.2266727 -1.85546875 7.9375 C-0.71346933 5.35105384 -0.38028774 2.78877677 0 0 Z " fill="#DD7946" transform="translate(408,104)"/>
</svg>
